<?xml version="1.0" encoding="UTF-8"?><svg id="Ebene_2" xmlns="http://www.w3.org/2000/svg" viewBox="0 0 80.32 45.23"><defs><style>.cls-1{fill:#0f3f69;}.cls-2{opacity:.8;}.cls-2,.cls-3{fill:#f9f2a6;}.cls-4{fill:#006176;}.cls-5{fill:#f8af3b;}.cls-6{fill:#eee655;}.cls-7{fill:#e95555;}</style></defs><g id="Ebene_2-2"><g id="Logo__Leuchtturm__Wortmarke_Sonnenaufgang"><g><path class="cls-4" d="M78.56,45.23H1.69c-.14-1.69-.14-3.35-.03-5,.14-2.1,.45-4.21,.93-6.28,.66-2.93,1.69-5.76,3.04-8.49,.93-1.83,2-3.62,3.24-5.35,4.24-5.83,9.87-10.32,16.35-13.01,2.76-1.17,5.69-2,8.73-2.48,2.04-.35,4.11-.52,6.18-.52,5.14,0,10.18,1.03,14.87,3,3.55,1.52,6.93,3.55,9.94,6.11,4.8,4.04,8.49,9.14,10.83,14.87,.79,1.93,1.41,3.9,1.9,5.93,.17,.83,.34,1.62,.48,2.45,.21,1.28,.35,2.52,.41,3.76,.14,1.69,.14,3.35,0,5Z"/><path class="cls-7" d="M73.14,41.99c.03,1.1,0,2.17-.07,3.24H7.18c-.1-1.07-.14-2.17-.1-3.24-.03-.66,0-1.31,.07-1.93,.17-2.1,.52-4.17,1.1-6.18,1-3.73,2.73-7.31,5.07-10.56,4.52-6.24,10.9-10.66,18.22-12.59,1.07-.31,2.17-.55,3.28-.72,1.76-.28,3.55-.41,5.31-.41,2.9,0,5.8,.38,8.56,1.14,4.66,1.24,9,3.52,12.73,6.66,5.14,4.31,8.8,10.07,10.56,16.49,.31,1.14,.59,2.31,.76,3.48,.14,.9,.24,1.79,.35,2.69,.03,.66,.07,1.28,.07,1.93Z"/><path class="cls-6" d="M67.65,41.99c.07,1.07,.03,2.17-.1,3.24H12.7c-.14-1.07-.17-2.17-.14-3.24,0-.66,.03-1.28,.07-1.93,.35-3.69,1.41-7.24,3.24-10.52,.52-1.03,1.17-2.04,1.86-3,4.31-6,10.7-9.94,17.97-11.11,1.14-.17,2.28-.31,3.45-.34,.03,0,.07-.03,.14,0,.28-.03,.55-.03,.83-.03s.55,0,.83,.03c.03-.03,.1-.03,.14,0,6.14,.21,12.07,2.48,16.8,6.49,2.66,2.24,4.83,4.93,6.45,7.93,1.48,2.69,2.48,5.66,3,8.73,.1,.62,.17,1.21,.24,1.83,.03,.62,.07,1.28,.07,1.93Z"/><path class="cls-5" d="M60.37,41.99c.03,1.1,0,2.17-.14,3.24H20.01c-.17-1.1-.21-2.17-.17-3.24,0-.66,.03-1.31,.14-1.93,1.1-8.69,7.83-15.97,16.9-17.46,.41-.07,.83-.14,1.24-.17,1.35-.14,2.66-.14,3.97,0,8.94,.86,16.53,7.69,18.04,16.97,.03,.21,.07,.45,.07,.66,.1,.66,.17,1.28,.17,1.93Z"/><path class="cls-1" d="M54.96,42.64c0,.9-.07,1.76-.24,2.59H25.53c-.17-.83-.24-1.69-.24-2.59,0-.21,0-.45,.03-.66,0-.66,.07-1.31,.21-1.93,1.1-6.31,6.18-11.25,12.59-12.11,.66-.1,1.31-.14,2-.14s1.31,.03,1.97,.14c6.42,.83,11.52,5.8,12.63,12.11,.14,.62,.21,1.28,.21,1.93,.03,.21,.03,.45,.03,.66Z"/><path class="cls-2" d="M77.66,34.02v3.11l-.03-.02-5.64-3.23-7.61-4.36-23.06-13.2-.28-.16-.09-.05h0s-.33-.19-.33-.19h0s-.31-.18-.31-.18l-.09-.05-.11-.06,.11-.06,.09-.05,.13-.07,.07-.04,.21-.12,.23-.13,.15-.09,7.6-4.35,6.3-3.61,1.47-.84c3.84,1.85,7.32,4.33,10.3,7.31,4.03,4.03,7.15,8.98,9.02,14.49,0,0,0,0,0,.01,.78,1.92,1.41,3.9,1.88,5.93Z"/><path class="cls-2" d="M40.11,15.63l-.42,.24-.12,.07-.21,.12-.06,.04-.1,.06-.24,.13-.94,.54-.18,.1-.06,.04-.07,.04L15.86,29.52l-7.63,4.37-5.44,3.11-.22,.13v-3.17c.68-2.92,1.7-5.77,3.06-8.48,3.56-8.38,10.07-15.2,18.23-19.15l1.36,.78,6.31,3.62,7.6,4.35,.17,.1,.14,.08,.18,.1,.07,.04,.06,.03,.06,.03,.3,.17Z"/><path class="cls-1" d="M80.21,36.91c-.28-3.21-.9-6.35-1.93-9.52-.03-.03-.03-.1-.07-.14-1.97-5.8-5.28-11.14-9.63-15.49-3.24-3.21-6.93-5.86-11.01-7.8-5.45-2.62-11.28-3.97-17.39-3.97s-12.01,1.35-17.46,4C13.97,8.25,7.07,15.52,3.24,24.46c-1.66,3.93-2.69,8.07-3.04,12.32-.07,1.14-.14,2.24-.14,3.35v5.11H5.24v-5.17c0-.93,.03-1.9,.14-2.83,.03-.62,.1-1.24,.21-1.83,.38-3.07,1.21-6.04,2.42-8.9,3.31-7.83,9.35-14.14,16.97-17.84,.55-.28,1.07-.52,1.62-.76,4.31-1.79,8.87-2.73,13.59-2.73s9.21,.9,13.49,2.69c.55,.21,1.1,.45,1.66,.72,3.55,1.72,6.8,4,9.59,6.83,3.76,3.76,6.66,8.42,8.38,13.45v.03c.72,2.14,1.24,4.38,1.52,6.62,.1,.59,.17,1.21,.21,1.79,.1,.86,.14,1.83,.14,2.73v5.17h5.14v-5.11c0-1.07-.03-2.17-.1-3.21Z"/><rect class="cls-3" x="2.52" y="41.99" width="75.17" height="3.24"/><path class="cls-1" d="M78.56,40.23c-.28-.1-.59-.17-.9-.17H2.59c-.35,0-.66,.07-.93,.17-.83,.31-1.41,1.04-1.59,1.9-.03,.17-.07,.34-.07,.52v2.59H80.25v-2.59c0-1.1-.72-2.04-1.69-2.42Z"/><path class="cls-1" d="M41.81,21.56v-1.14l.03-.03v-.03l-.1-.1h-.1v-.03h.03v-.03l-.07-.03h-.07v-.79h.03v-.07l-.17-.1v-.07l-.03-.1v-1.41l.07-.07v-.28s.07-.14,.07-.24-.14-.14-.14-.14v-.28s.03,0,.03-.1c0-.07-.03-.1-.07-.17t-.03-.03s-.07-.38-.07-.38c0,0,.03,0,.03-.03s-.07-.07-.07-.07v-.1h-.07v.14h-.07l.07,.1-.07,.21-.03,.07-.07-.03v-1.24l.03-.07v-.03l-.03-.03v-.59h-.03v-.1h-.03v.1h-.03v.07h.03v.41c0-.14-.1-.24-.1-.24v-.34h.03v-.03h-.03v-.14h-.03v.1l-.03,.03v.03h.03v.28s-.35-.52-.45-.69c-.1-.21-.1-.34-.1-.34v-.03c0-.07-.07-.1-.07-.1v-.52l.41-.03s-.03-.03-.03-.07c-.03-.03,.03-.1,.03-.1l-.1,.03v-.07l-.31,.17v-.17h-.03v.21l-.21,.07-.03,.03,.03,.03,.21-.1v.55c-.07,0-.07,.1-.07,.1h.03c0,.17-.14,.34-.14,.34l-.24,.38v-.17h-.07v.28l-.1,.17v-.1h-.07v.17c-.07,.1-.07,.31-.07,.31v-.66h-.07v.69l-.03,.03,.03,.07v1.31c-.07,0-.1,.03-.1,.03l.03-.07v-.03l.03-.03v-.07l-.14-.48h.07l-.07-.07v-.1h-.1v.14h-.03l.03,.07-.1,.34v.14l.07,.07v.21s-.1,.1-.1,.17v.48c-.28-.03-.55-.1-.83-.14-.34-.07-.66-.14-.97-.17,.21,.07,.41,.21,.66,.34,.34,.24,.72,.55,1.03,1,.03,.07,.07,.14,.1,.21v.79l-.21,.07v1.14l-.28,.07v1.45l-.28,.07v6.55l3.97,.21v-6.83l.07-.07v-.03l-.34-.07Zm-3.45-4.14c-.21-.21-.38-.34-.55-.45-.07-.03-.1-.07-.14-.1l.17,.07,1.07,.21v.97c-.14-.21-.31-.45-.55-.69Z"/><g id="Fenster_Leuchthaus_"><polygon class="cls-3" points="39.36 15.3 39.36 15.54 39.63 15.45 39.63 15.17 39.36 15.3"/><polygon class="cls-3" points="39.36 15.57 39.36 15.77 39.63 15.64 39.63 15.48 39.36 15.57"/><path class="cls-3" d="M39.63,15.68s-.27,.15-.27,.15v.11l.27-.04v-.21Z"/><polygon class="cls-3" points="39.36 15.97 39.36 16.02 39.41 16.16 39.63 16.14 39.63 15.93 39.36 15.97"/><polygon class="cls-3" points="39.7 15.13 39.7 15.43 40.22 15.39 40.22 15.09 39.7 15.13"/><polygon class="cls-3" points="39.7 15.47 39.7 15.88 40.22 15.88 40.22 15.43 39.7 15.47"/><polygon class="cls-3" points="39.7 15.93 39.7 16.11 40.22 16.09 40.22 15.93 39.7 15.93"/><polygon class="cls-3" points="40.31 15.09 40.31 15.39 40.69 15.43 40.66 15.38 40.66 15.36 40.71 15.36 40.71 15.22 40.72 15.22 40.72 15.17 40.31 15.09"/><polygon class="cls-3" points="40.31 15.43 40.31 15.6 40.68 15.65 40.71 15.48 40.31 15.43"/><polygon class="cls-3" points="40.31 15.64 40.31 15.88 40.62 15.93 40.61 15.91 40.61 15.79 40.64 15.79 40.67 15.69 40.32 15.64 40.31 15.64"/><polygon class="cls-3" points="40.31 15.93 40.31 16.08 40.65 16.14 40.65 16 40.62 15.97 40.31 15.93"/><polygon class="cls-3" points="40.81 15.25 40.81 15.35 40.86 15.39 40.86 15.43 40.82 15.43 40.82 15.51 40.87 15.51 40.87 15.33 40.81 15.25"/></g></g></g></g></svg>